<svg xmlns="http://www.w3.org/2000/svg" width="76.475" height="72" viewBox="0 0 76.475 72">
  <g id="Group_8573" data-name="Group 8573" transform="translate(-232.687 -1090.393)">
    <rect id="Rectangle_2292" data-name="Rectangle 2292" width="72" height="72" transform="translate(234.892 1090.393)" fill="#fff" opacity="0"/>
    <g id="Group_10197" data-name="Group 10197" transform="translate(-125.443 740.392)">
      <path id="Path_25714" data-name="Path 25714" d="M19575.273-21134.508l6.162-3.215,13,23.047-6.836,3.484Z" transform="translate(-19161.014 21500.822)" fill="#f9f0de"/>
      <path id="Path_25658" data-name="Path 25658" d="M81.489,36.266l-12.843-22.6a1.514,1.514,0,0,0-1.967-.57l-5.9,3.363a1.534,1.534,0,0,0-.57,2.085l1.18,2.38a4.11,4.11,0,0,1-2.852.688,18.312,18.312,0,0,1-2.753-.629c-4.327-1.16-11.545-3.127-18.625,0a13.767,13.767,0,0,0-3.717,2.3c-.649,0-1.967-.236-3.324-.433A10.9,10.9,0,0,1,26.4,20.375l.826-1.455a1.534,1.534,0,0,0-.57-2.085l-5.9-3.363a1.5,1.5,0,0,0-1.16-.138,1.455,1.455,0,0,0-.924.708L5.867,36.659a1.5,1.5,0,0,0-.138,1.16,1.455,1.455,0,0,0,.708.924l5.9,3.363a1.475,1.475,0,0,0,.747.2,1.5,1.5,0,0,0,.413,0,1.455,1.455,0,0,0,.924-.708l1.4-2.439A44.941,44.941,0,0,0,19.575,43.5l-.315.452a3.917,3.917,0,0,0,.924,5.428,3.717,3.717,0,0,0,2.242.728h.157a3.765,3.765,0,0,0,1.593,3.7,3.776,3.776,0,0,0,2.242.728,3.933,3.933,0,0,0,1.18-.177,3.934,3.934,0,0,0,5.232,2.93,3.934,3.934,0,0,0,1.534,2.262,3.776,3.776,0,0,0,2.242.708h.669a3.816,3.816,0,0,0,2.517-1.573v-.118h0a17.327,17.327,0,0,0,7.218,1.967,7.71,7.71,0,0,0,2.576-.472,5.625,5.625,0,0,0,3.285-2.675h.649a5.408,5.408,0,0,0,3.088-.944,5.31,5.31,0,0,0,2.085-3.127,4.976,4.976,0,0,0,3.186-1.632,6.648,6.648,0,0,0,1.357-2.4,5.7,5.7,0,0,0,3.934-2.1,4.17,4.17,0,0,0,.57-3.206A4.249,4.249,0,0,0,67.23,42.7h0a13.472,13.472,0,0,0,4.642-3.619l1.141,1.967a1.554,1.554,0,0,0,.924.728,1.494,1.494,0,0,0,.413,0,1.691,1.691,0,0,0,.747-.2L81,38.213a1.554,1.554,0,0,0,.728-.924,1.5,1.5,0,0,0-.236-1.023Zm-66.595.393h0l-1.967,3.324L7.794,37.21,20.224,15.4l5.133,2.93ZM24.02,47.241h0A1.916,1.916,0,0,1,20.913,45l.708-1.023.9-1.259a1.934,1.934,0,0,1,3.3,1.986h0Zm4.248,4.071-.256.354a1.967,1.967,0,1,1-3.127-2.242l.708-.964h0L27.206,46.2l2.124-2.989a1.967,1.967,0,0,1,2.714-.649,1.849,1.849,0,0,1,.787,1.259,1.967,1.967,0,0,1-.334,1.436l-.708,1Zm5.212,2.714-.472.649a1.967,1.967,0,1,1-3.088-2.281l3.521-4.956h0a1.967,1.967,0,0,1,3.4.885,1.79,1.79,0,0,1-.334,1.436l-1.18,1.672Zm6.608.767L38.85,56.5l-.157.236-.492.669a1.967,1.967,0,0,1-3.285-1.967l.157-.256,1.868-2.616h0a1.928,1.928,0,0,1,3.107,2.281ZM65.46,46.139a4.209,4.209,0,0,1-2.852,1.278h0L50.985,40.141a.983.983,0,0,0-1.357.3.964.964,0,0,0,.315,1.357l11.329,7.12a4.484,4.484,0,0,1-.924,1.534,3.206,3.206,0,0,1-2.3,1h0L47.779,45.707a.99.99,0,0,0-.964,1.731l9.834,5.487a3.245,3.245,0,0,1-1.3,1.967,3.6,3.6,0,0,1-2.891.472h-.118a1.416,1.416,0,0,0-.2-.157l-7.867-3.934a.983.983,0,0,0-.885,1.75l7.533,3.8a3.776,3.776,0,0,1-1.967,1.475,11.506,11.506,0,0,1-7.867-1.4h0l.629-.964A3.882,3.882,0,0,0,38.732,49.8a4.091,4.091,0,0,0,.118-1.829,3.9,3.9,0,0,0-4.012-3.245,3.717,3.717,0,0,0,0-1.141,3.934,3.934,0,0,0-7.021-1.613l-.177.236a3.579,3.579,0,0,0-1.259-1.514,3.934,3.934,0,0,0-5.428.9l-.157.2h0a46.711,46.711,0,0,1-3.934-4.6h0l8.575-15.065h0a11.289,11.289,0,0,0,4.484,2.734l1.967.275a11.525,11.525,0,0,0-2.124,4.484,4.366,4.366,0,0,0,1.16,4.111,4.288,4.288,0,0,0,3.934,1.18,6.628,6.628,0,0,0,3.816-2.3l1.967-2.616,2.773-.728A82.6,82.6,0,0,1,64.673,43.032h.118a.964.964,0,0,0,.2.177,1.967,1.967,0,0,1,.767,1.219,2.222,2.222,0,0,1-.3,1.711Zm.256-4.9A82.6,82.6,0,0,0,43.944,27.3a1.3,1.3,0,0,0-.551,0,1.4,1.4,0,0,0-.393,0l-3.048.806a1.632,1.632,0,0,0-.826.551l-1.967,2.714a4.838,4.838,0,0,1-2.694,1.613,2.36,2.36,0,0,1-2.163-.649,2.478,2.478,0,0,1-.649-2.3,9.421,9.421,0,0,1,2.911-4.937,13.217,13.217,0,0,1,3.56-2.262c6.412-2.812,13.236-.964,17.308.138a19.019,19.019,0,0,0,3.088.688,6.038,6.038,0,0,0,3.934-.944l8.3,14.593A11.407,11.407,0,0,1,65.7,41.242Zm8.732-1.455L72.6,36.541,63.926,21.3l-1.868-3.285,5.114-2.989L79.562,36.856Z" transform="translate(352.666 349.061)" fill="#4b006d" stroke="#4b006d" stroke-width="0.4"/>
    </g>
  </g>
</svg>
